<svg viewBox="0 0 1920 600" preserveAspectRatio="xMidYMid meet" xmlns="http://www.w3.org/2000/svg" role="img" aria-labelledby="heroLogoTitle">
  <title id="heroLogoTitle">Λογότυπο Συνεταιρισμού Αστυνομικών Αττικής</title>
  <style>
    .animated-logo-paths path { fill: transparent; stroke: #071a33; vector-effect: non-scaling-stroke; stroke-width: 1.5px; stroke-dasharray: 25000; stroke-dashoffset: 25000; animation: drawLogoOutlines 2s ease-in-out forwards, fillLogoOutlines .4s ease-in-out 2s forwards; }
    @keyframes drawLogoOutlines { to { stroke-dashoffset: 0; } }
    @keyframes fillLogoOutlines { to { fill: #071a33; stroke: transparent; } }
    @media (prefers-reduced-motion: reduce) { .animated-logo-paths path { animation: none; stroke-dashoffset: 0; fill: #071a33; stroke-width: 0; } }
  </style>
  <!-- Αφαιρέσαμε το καρφωτό fill="#000000" για να το ελέγχουμε από το CSS -->
  <g class="animated-logo-paths" transform="translate(0, 600) scale(0.1, -0.1)">
    <!-- Εδώ μπαίνουν ΑΚΡΙΒΩΣ τα ίδια <path> που μου έστειλες -->
    <path d="M9405 5814 c-60 -28 -101 -39 -165 -45 -115 -11 -181 -36 -310 -114 -59 -37 -136 -75 -170 -85 -70 -21 -103 -47 -131 -103 -11 -21 -43 -66 -72 -100 -74 -86 -84 -105 -93 -162 -3 -27 -19 -76 -35 -107 -16 -31 -33 -78 -39 -105 -6 -26 -27 -72 -46 -101 -25 -38 -37 -68 -40 -105 -3 -29 -12 -83 -21 -121 -13 -58 -14 -84 -5 -160 6 -50 11 -136 10 -191 -1 -93 1 -104 29 -156 24 -45 31 -73 37 -146 8 -106 29 -184 84 -311 62 -143 105 -196 247 -304 86 -66 105 -100 105 -190 0 -45 7 -84 21 -120 18 -44 22 -76 23 -183 2 -116 5 -136 28 -190 14 -33 45 -136 68 -230 46 -190 68 -248 99 -264 26 -14 61 1 62 27 3 66 -6 137 -27 206 -44 148 -53 190 -74 361 -12 94 -32 249 -46 345 -41 281 -25 522 45 670 24 52 26 65 27 215 0 93 6 171 12 187 6 16 30 51 52 79 34 43 40 58 40 98 0 36 -5 53 -21 67 -21 19 -21 19 -43 -9 -11 -15 -46 -57 -76 -92 -30 -35 -66 -78 -79 -95 -36 -47 -63 -54 -144 -35 -97 22 -171 1 -244 -68 -18 -17 -33 -27 -33 -21 1 38 26 104 48 127 24 25 25 30 16 75 -11 53 -2 108 22 132 12 12 18 12 34 2 27 -17 65 -15 80 3 9 11 16 13 24 5 5 -5 23 -10 38 -10 22 0 31 6 39 27 8 22 5 41 -18 103 -26 69 -31 75 -59 78 -19 2 -36 -3 -44 -12 -7 -9 -25 -16 -40 -16 -24 0 -28 5 -34 39 -4 30 -15 47 -46 71 -25 20 -44 45 -51 69 -10 34 -7 47 32 147 24 60 58 128 76 152 18 23 51 79 74 122 49 94 81 124 156 146 38 11 72 30 102 58 72 66 114 94 207 138 70 34 101 43 167 48 58 5 92 13 117 28 52 33 111 29 167 -9 25 -18 64 -36 87 -41 22 -5 57 -21 76 -37 19 -15 43 -30 53 -34 26 -10 54 8 61 38 9 35 45 41 87 16 23 -14 51 -21 88 -21 34 0 74 -9 110 -24 31 -14 68 -27 83 -30 37 -8 81 -48 112 -100 30 -52 69 -77 151 -101 33 -9 79 -27 101 -40 63 -37 68 -88 11 -103 -43 -11 -54 -33 -39 -75 8 -23 10 -58 6 -105 -8 -88 -2 -113 41 -161 19 -20 43 -59 55 -85 11 -27 29 -59 40 -73 23 -30 26 -75 6 -92 -8 -7 -27 -11 -43 -9 -26 3 -28 6 -25 42 3 39 -18 76 -43 76 -23 0 -45 37 -45 77 0 64 -48 94 -85 53 -40 -44 -100 -12 -111 60 -14 84 -59 108 -140 74 -52 -22 -96 -13 -152 31 -25 19 -56 35 -68 35 -28 0 -48 -33 -40 -65 4 -17 0 -28 -14 -38 -19 -13 -29 -12 -93 8 -40 13 -84 29 -99 35 -23 11 -33 9 -81 -19 -30 -17 -60 -38 -67 -46 -24 -29 -66 -18 -100 25 -17 22 -40 40 -51 40 -11 0 -45 -27 -77 -60 -57 -58 -60 -60 -110 -60 -28 0 -63 -5 -77 -12 -22 -10 -29 -8 -55 17 -26 24 -33 27 -54 17 -20 -9 -24 -19 -28 -73 -5 -71 -24 -94 -65 -78 -67 25 -117 0 -157 -78 -15 -30 -15 -36 -1 -62 18 -36 98 -66 146 -56 24 5 36 2 54 -15 14 -13 31 -20 39 -17 15 6 50 72 77 145 14 40 33 50 116 68 35 7 90 28 122 45 l59 32 57 -18 c75 -23 153 -16 206 19 47 31 71 32 151 5 64 -21 89 -20 165 8 71 26 171 0 244 -62 29 -25 78 -54 108 -66 71 -26 126 -79 145 -138 15 -48 33 -264 28 -341 -3 -50 -25 -80 -58 -80 -12 0 -56 18 -98 40 -66 35 -84 40 -140 40 -104 0 -228 -58 -268 -125 -19 -34 -38 -267 -38 -476 0 -125 8 -147 50 -134 35 11 44 44 44 172 1 117 2 124 26 146 14 14 59 34 102 46 74 21 80 22 132 7 73 -22 88 -20 144 11 34 19 55 24 74 20 34 -9 41 -33 29 -90 -6 -24 -8 -73 -5 -108 5 -61 4 -68 -40 -153 -25 -49 -46 -96 -46 -105 0 -9 -16 -43 -36 -76 -47 -78 -58 -160 -25 -189 18 -16 25 -17 47 -7 l26 12 -4 -58 c-5 -68 -58 -195 -117 -281 -21 -31 -91 -110 -154 -175 -150 -153 -167 -161 -342 -162 -156 0 -211 15 -282 79 -63 57 -96 73 -168 81 -65 8 -97 23 -135 64 -32 36 -62 51 -97 51 -38 0 -53 -17 -53 -59 0 -94 128 -211 411 -375 128 -74 156 -84 330 -121 189 -40 261 -32 323 34 36 38 52 39 88 4 24 -23 31 -25 53 -15 14 7 28 20 32 29 23 65 87 72 158 18 44 -34 60 -40 97 -37 21 2 48 51 48 87 0 28 -33 99 -51 111 -21 13 -49 89 -49 136 0 26 -7 77 -16 115 -20 85 -14 274 11 343 17 45 56 219 96 420 11 58 29 146 40 195 11 50 26 142 35 205 10 75 23 130 39 160 12 25 41 80 64 124 23 43 41 84 41 92 0 8 11 31 23 52 35 55 39 83 22 162 -13 63 -13 86 -1 193 16 133 13 169 -16 207 -17 21 -18 34 -13 96 6 62 4 77 -15 115 -13 24 -38 61 -57 82 -40 45 -53 75 -53 125 0 21 -7 47 -15 60 -20 27 -114 95 -226 160 -47 28 -98 67 -113 86 -38 50 -185 120 -296 141 -47 8 -114 30 -150 47 -49 23 -86 33 -150 39 -89 8 -162 21 -244 45 -66 19 -70 19 -161 -22z"/>
    <path d="M9410 5493 c-8 -4 -49 -42 -90 -85 -62 -65 -80 -78 -106 -78 -37 0 -67 -29 -62 -62 3 -21 8 -23 63 -23 33 0 74 -4 92 -8 35 -9 57 -1 114 45 20 16 53 33 75 39 51 14 74 36 74 69 0 35 -24 63 -75 89 -40 21 -58 24 -85 14z"/>
    <path d="M10148 5429 c-10 -5 -18 -18 -18 -28 0 -20 -76 -51 -125 -51 -59 0 -96 -50 -60 -80 18 -15 248 -43 294 -36 19 3 42 1 53 -5 47 -25 82 22 51 69 -11 15 -24 39 -30 54 -12 27 -79 72 -123 82 -14 3 -33 1 -42 -5z"/>
    <path d="M9515 5207 c-16 -12 -57 -36 -90 -52 -49 -25 -60 -35 -60 -55 0 -23 4 -25 45 -26 25 0 57 -4 72 -8 49 -15 77 7 135 107 30 53 -44 77 -102 34z"/>
    <path d="M9798 5213 c-45 -3 -60 -8 -68 -24 -10 -17 -3 -28 49 -80 55 -55 64 -60 98 -57 33 3 41 9 61 46 31 55 24 88 -23 108 -19 8 -40 13 -47 12 -7 -1 -39 -3 -70 -5z"/>
    <path d="M9474 4134 c-94 -57 -164 -90 -239 -113 -99 -30 -135 -65 -135 -130 0 -22 11 -43 34 -69 34 -36 36 -37 128 -44 158 -11 270 -9 351 7 133 25 163 51 173 151 12 114 -23 173 -128 215 -69 29 -116 24 -184 -17z"/>
    <path d="M9747 3268 c-25 -16 -49 -39 -53 -50 -7 -22 17 -54 48 -64 14 -4 18 -13 16 -31 -3 -29 -14 -36 -76 -53 -52 -13 -70 -43 -56 -92 6 -21 20 -38 39 -47 27 -13 36 -12 93 8 55 20 74 22 152 16 94 -7 127 -21 117 -49 -8 -21 -48 -36 -98 -36 -42 0 -83 -29 -73 -53 10 -27 55 -37 158 -37 111 0 161 11 176 40 15 28 12 77 -7 113 -18 35 -22 143 -9 215 11 52 -2 69 -89 117 -58 32 -63 33 -176 33 -112 0 -117 -1 -162 -30z"/>
    <path d="M1890 1690 l0 -200 45 0 45 0 0 165 0 165 75 0 75 0 0 -165 0 -165 40 0 40 0 0 200 0 200 -160 0 -160 0 0 -200z"/>
    <path d="M2310 1690 l0 -200 40 0 40 0 0 69 0 68 60 7 c99 11 149 75 129 164 -15 69 -62 92 -191 92 l-78 0 0 -200z m174 114 c9 -8 16 -28 16 -44 0 -35 -32 -60 -77 -60 l-33 0 0 60 0 60 39 0 c23 0 46 -7 55 -16z"/>
    <path d="M2730 1868 c-61 -42 -75 -71 -78 -161 -3 -70 0 -89 20 -126 37 -71 65 -86 163 -86 90 0 116 11 159 69 18 23 21 42 21 126 0 109 -10 133 -75 178 -27 18 -47 22 -105 22 -58 0 -78 -4 -105 -22z m177 -73 c39 -43 42 -160 5 -205 -39 -47 -130 -41 -157 9 -22 44 -27 101 -13 151 11 35 21 49 48 63 43 21 87 15 117 -18z"/>
    <path d="M3110 1690 l0 -200 35 0 34 0 3 153 3 152 45 -150 46 -150 39 -3 40 -3 52 158 51 158 1 -157 1 -158 35 0 35 0 0 200 0 200 -54 0 -54 0 -47 -142 c-26 -79 -51 -146 -54 -151 -4 -4 -27 59 -52 140 l-45 148 -57 3 -57 3 0 -201z"/>
    <path d="M3640 1690 l0 -200 40 0 40 0 0 85 0 85 80 0 80 0 0 -85 0 -85 40 0 40 0 0 200 0 200 -40 0 -40 0 0 -80 0 -80 -80 0 -80 0 0 80 0 80 -40 0 -40 0 0 -200z"/>
    <path d="M4144 1876 c-65 -29 -100 -108 -91 -211 9 -120 58 -168 177 -173 66 -3 79 -1 110 20 47 32 76 78 85 134 14 97 -23 192 -87 225 -44 23 -147 25 -194 5z m158 -73 c43 -38 49 -160 11 -211 -37 -50 -125 -46 -156 7 -20 35 -23 136 -5 177 23 50 106 65 150 27z"/>
    <path d="M4170 1695 l0 -35 70 0 70 0 0 35 0 35 -70 0 -70 0 0 -35z"/>
    <path d="M4510 1690 l0 -200 115 0 115 0 0 35 0 35 -75 0 -75 0 0 50 0 50 70 0 70 0 0 35 0 34 -67 3 -68 3 -3 43 -3 42 75 0 76 0 0 35 0 35 -115 0 -115 0 0 -200z"/>
    <path d="M4780 1884 c0 -3 29 -60 65 -128 63 -118 65 -125 65 -194 l0 -72 40 0 40 0 0 81 c0 85 1 88 127 312 2 4 -16 7 -41 7 l-46 0 -41 -82 -42 -83 -41 83 -40 82 -43 0 c-24 0 -43 -2 -43 -6z"/>
    <path d="M5130 1855 l0 -35 55 0 55 0 0 -165 0 -165 45 0 45 0 0 165 0 165 50 0 50 0 0 35 0 35 -150 0 -150 0 0 -35z"/>
    <path d="M5470 1865 c0 -17 8 -29 24 -36 23 -11 23 -15 25 -138 2 -127 2 -128 -24 -139 -17 -8 -25 -20 -25 -37 0 -25 0 -25 90 -25 88 0 90 1 90 23 0 16 -9 28 -25 35 -25 11 -25 13 -25 142 0 129 0 131 25 142 16 7 25 19 25 35 0 22 -2 23 -90 23 -90 0 -90 0 -90 -25z"/>
    <path d="M5720 1690 l0 -200 40 0 40 0 0 73 c0 60 3 74 19 84 17 11 24 3 70 -73 l52 -84 44 0 c25 0 45 2 45 4 0 3 -27 48 -61 101 -33 53 -62 102 -65 110 -4 8 20 46 53 87 83 102 82 98 29 98 -45 0 -45 0 -115 -91 l-71 -92 0 92 0 91 -40 0 -40 0 0 -200z"/>
    <path d="M6154 1876 c-65 -29 -100 -108 -91 -211 9 -120 58 -168 177 -173 66 -3 79 -1 110 20 47 32 76 78 85 134 14 96 -20 186 -85 223 -44 25 -146 28 -196 7z m158 -73 c43 -38 49 -160 11 -211 -37 -50 -125 -46 -156 7 -20 35 -23 136 -5 177 23 50 106 65 150 27z"/>
    <path d="M6490 1857 c0 -27 11 -43 60 -92 33 -33 60 -63 60 -67 0 -4 -27 -36 -60 -71 -50 -54 -60 -70 -60 -101 l0 -36 145 0 145 0 0 35 0 34 -99 3 -100 3 61 68 61 68 -59 60 -58 59 87 0 87 0 0 35 0 35 -135 0 -135 0 0 -33z"/>
    <path d="M6970 1690 l0 -200 40 0 40 0 0 73 c0 60 3 74 19 84 17 11 24 3 70 -73 l52 -84 44 0 c25 0 45 2 45 4 0 3 -27 48 -61 101 -33 53 -62 102 -65 110 -4 8 20 46 53 87 83 102 82 98 30 98 -44 0 -45 -1 -116 -91 l-71 -91 0 91 0 91 -40 0 -40 0 0 -200z"/>
    <path d="M7425 1878 c-40 -112 -135 -382 -135 -385 0 -2 20 -3 44 -3 l45 0 13 48 14 47 74 0 74 0 15 -47 c14 -48 15 -48 58 -48 24 0 43 3 42 8 0 4 -31 93 -68 197 l-68 190 -51 3 c-36 2 -54 -1 -57 -10z m105 -210 c0 -5 -23 -8 -51 -8 -42 0 -50 3 -45 15 3 9 13 41 22 73 9 31 19 61 22 66 4 7 51 -126 52 -146z"/>
    <path d="M7690 1867 c0 -16 9 -28 25 -35 25 -11 25 -13 25 -142 0 -129 0 -131 -25 -142 -16 -7 -25 -19 -25 -35 0 -22 2 -23 90 -23 90 0 90 0 90 25 0 18 -7 28 -25 35 -25 9 -25 10 -25 140 0 130 0 131 25 140 18 7 25 17 25 35 0 25 0 25 -90 25 -88 0 -90 -1 -90 -23z"/>
    <path d="M8060 1690 l0 -200 40 0 40 0 0 68 c0 55 4 72 19 86 19 17 21 16 53 -36 19 -29 43 -68 53 -85 18 -30 24 -33 67 -33 l48 0 -52 83 c-28 45 -59 96 -69 112 l-18 30 70 88 69 87 -47 0 -48 -1 -70 -90 -70 -91 -3 91 -3 91 -39 0 -40 0 0 -200z"/>
    <path d="M8457 1698 c-37 -106 -67 -197 -67 -201 0 -5 19 -7 42 -5 41 3 43 5 57 51 l15 47 72 0 73 0 13 -47 c14 -48 14 -48 61 -51 l47 -3 -24 63 c-13 35 -45 125 -71 201 l-48 137 -52 0 -51 0 -67 -192z m147 38 l24 -76 -49 0 c-31 0 -49 4 -49 12 0 17 43 148 47 144 2 -2 14 -38 27 -80z"/>
    <path d="M8740 1855 l0 -35 55 0 55 0 0 -165 0 -165 40 0 40 0 0 165 0 165 55 0 55 0 0 35 0 35 -150 0 -150 0 0 -35z"/>
    <path d="M9145 1878 c-40 -112 -135 -382 -135 -385 0 -2 20 -3 44 -3 l45 0 13 48 14 47 74 0 74 0 15 -47 c14 -48 15 -48 58 -48 24 0 43 3 42 8 0 4 -31 93 -68 197 l-68 190 -51 3 c-36 2 -54 -1 -57 -10z m105 -210 c0 -5 -23 -8 -51 -8 -42 0 -50 3 -45 15 3 9 13 41 22 73 9 31 19 61 22 66 4 7 51 -126 52 -146z"/>
    <path d="M9450 1691 l0 -201 35 0 34 0 3 147 3 146 84 -146 84 -147 53 0 54 0 0 200 0 200 -42 0 -41 0 6 -152 c4 -95 3 -147 -3 -138 -5 8 -44 76 -87 150 l-79 135 -52 3 -52 3 0 -200z"/>
    <path d="M9977 1848 c-8 -24 -40 -114 -71 -200 l-55 -158 44 0 c43 0 43 0 60 50 l17 51 71 -3 72 -3 15 -47 15 -48 87 0 87 0 40 128 c22 70 44 143 49 162 7 28 10 31 14 15 4 -11 25 -84 49 -162 l42 -143 43 0 43 0 -68 198 -69 197 -44 3 -45 3 -63 -183 c-34 -101 -66 -189 -70 -197 -7 -12 -33 55 -118 301 l-27 78 -52 0 -51 0 -15 -42z m110 -184 c-3 -3 -25 -4 -49 -2 l-45 3 25 80 25 80 25 -78 c13 -43 22 -80 19 -83z"/>
    <path d="M10725 1876 c-108 -49 -127 -195 -38 -288 l27 -28 -47 0 -47 0 0 -35 0 -35 85 0 85 0 0 39 c0 25 -5 41 -15 45 -48 18 -72 143 -40 206 30 58 132 61 169 5 33 -51 13 -178 -33 -207 -15 -9 -21 -23 -21 -50 l0 -38 85 0 85 0 0 35 c0 35 0 35 -46 35 l-46 0 30 34 c76 87 67 204 -22 270 -35 26 -165 34 -211 12z"/>
    <path d="M11040 1855 l0 -35 55 0 55 0 0 -165 0 -165 40 0 40 0 0 165 0 165 55 0 55 0 0 35 0 35 -150 0 -150 0 0 -35z"/>
    <path d="M11370 1867 c0 -16 9 -28 25 -35 25 -11 25 -13 25 -142 0 -129 0 -131 -25 -142 -16 -7 -25 -19 -25 -35 0 -22 2 -23 90 -23 90 0 90 0 90 25 0 18 -7 28 -25 35 -25 9 -25 10 -25 140 0 130 0 131 25 140 18 7 25 17 25 35 0 25 0 25 -90 25 -88 0 -90 -1 -90 -23z"/>
    <path d="M11620 1690 l0 -200 40 0 40 0 0 68 c0 55 4 72 19 86 19 17 21 16 53 -36 19 -29 43 -68 53 -85 18 -30 24 -33 67 -33 l48 0 -52 83 c-28 45 -59 96 -69 112 l-18 30 70 88 69 87 -47 0 -48 -1 -70 -90 -70 -91 -3 91 -3 91 -39 0 -40 0 0 -200z"/>
    <path d="M12054 1872 c-47 -30 -72 -67 -84 -128 -22 -105 21 -211 100 -244 45 -19 163 -9 197 16 98 71 97 277 0 348 -41 30 -170 35 -213 8z m135 -53 c18 -6 38 -24 46 -40 20 -37 19 -142 0 -179 -28 -54 -121 -58 -159 -7 -17 22 -21 43 -21 97 0 90 26 127 96 139 3 1 20 -4 38 -10z"/>
    <path d="M12400 1858 c0 -26 12 -44 62 -95 l61 -62 -66 -74 c-53 -58 -67 -81 -67 -106 l0 -31 145 0 145 0 0 35 0 35 -95 0 c-52 0 -95 4 -95 8 0 4 21 28 46 52 74 73 74 74 8 141 l-58 59 92 0 92 0 0 35 0 35 -135 0 -135 0 0 -32z"/>
    <path d="M12850 1858 c0 -26 12 -44 62 -95 l61 -62 -66 -76 c-50 -57 -67 -83 -67 -106 l0 -29 145 0 145 0 0 35 0 34 -96 3 -96 3 63 69 63 68 -65 59 -64 58 93 1 92 0 0 35 0 35 -135 0 -135 0 0 -32z"/>
    <path d="M13160 1885 c0 -2 29 -58 65 -124 64 -117 65 -120 65 -195 l0 -76 40 0 40 0 0 76 c0 75 1 79 63 193 34 63 64 119 65 123 2 5 -16 8 -40 8 l-44 0 -39 -80 c-21 -44 -42 -80 -45 -80 -3 0 -24 36 -45 80 l-39 80 -43 0 c-24 0 -43 -2 -43 -5z"/>
    <path d="M13550 1690 l0 -200 41 0 42 0 -5 150 c-3 83 -2 148 1 144 3 -3 42 -69 87 -147 l81 -142 57 -3 56 -3 0 201 0 200 -41 0 -40 0 3 -145 c2 -80 1 -145 -2 -145 -3 0 -42 66 -88 145 l-83 145 -55 0 -54 0 0 -200z"/>
    <path d="M14010 1690 l0 -200 115 0 115 0 0 35 0 35 -75 0 -75 0 0 50 0 49 68 3 67 3 3 33 3 32 -70 0 -71 0 0 45 0 45 75 0 75 0 0 35 0 35 -115 0 -115 0 0 -200z"/>
    <path d="M14280 1855 l0 -35 55 0 55 0 0 -165 0 -165 45 0 45 0 0 165 0 165 50 0 50 0 0 35 0 35 -150 0 -150 0 0 -35z"/>
    <path d="M14677 1848 c-8 -24 -40 -114 -71 -200 l-55 -158 44 0 c43 0 43 0 60 50 l17 51 71 -3 72 -3 15 -47 c15 -47 16 -48 58 -48 23 0 42 3 42 8 0 4 -30 94 -67 199 l-68 193 -52 0 -51 0 -15 -42z m110 -184 c-3 -3 -25 -4 -49 -2 l-45 3 25 80 25 80 25 -78 c13 -43 22 -80 19 -83z"/>
    <path d="M14960 1865 c0 -17 8 -29 25 -37 25 -11 25 -12 25 -138 0 -126 0 -127 -25 -138 -17 -8 -25 -20 -25 -37 0 -25 0 -25 90 -25 88 0 90 1 90 23 0 16 -9 28 -25 35 -25 11 -25 13 -25 142 0 129 0 131 25 142 16 7 25 19 25 35 0 22 -2 23 -90 23 -90 0 -90 0 -90 -25z"/>
    <path d="M15210 1690 l0 -200 40 0 40 0 0 69 0 68 49 6 c92 11 141 55 141 127 0 91 -57 130 -190 130 l-80 0 0 -200z m170 110 c22 -22 22 -25 14 -56 -6 -24 -42 -44 -79 -44 -24 0 -25 3 -25 60 l0 60 35 0 c22 0 43 -8 55 -20z"/>
    <path d="M15530 1865 c0 -17 8 -29 24 -37 24 -10 25 -13 25 -138 0 -125 -1 -128 -25 -138 -16 -8 -24 -20 -24 -37 0 -25 0 -25 90 -25 88 0 90 1 90 23 0 16 -9 28 -25 35 -25 11 -25 13 -25 142 0 129 0 131 25 142 16 7 25 19 25 35 0 22 -2 23 -90 23 -90 0 -90 0 -90 -25z"/>
    <path d="M15750 1857 c0 -27 11 -43 60 -92 33 -33 60 -63 60 -67 0 -4 -27 -36 -60 -71 -50 -54 -60 -70 -60 -101 l0 -36 145 0 145 0 0 35 0 34 -99 3 -100 3 61 68 61 68 -59 60 -58 59 87 0 87 0 0 35 0 35 -135 0 -135 0 0 -33z"/>
    <path d="M16110 1690 l0 -200 35 0 34 0 3 152 3 152 45 -149 46 -150 39 -3 40 -3 52 158 51 158 1 -157 1 -158 35 0 35 0 0 200 0 200 -54 0 -54 0 -47 -142 c-26 -79 -51 -146 -54 -151 -4 -4 -27 59 -52 140 l-45 148 -57 3 -57 3 0 -201z"/>
    <path d="M16714 1876 c-65 -29 -100 -108 -91 -211 9 -120 58 -168 177 -173 66 -3 79 -1 110 20 47 32 76 78 85 134 14 96 -20 186 -85 223 -44 25 -146 28 -196 7z m158 -73 c43 -38 49 -160 11 -211 -37 -50 -125 -46 -156 7 -20 35 -23 136 -5 177 23 50 106 65 150 27z"/>
    <path d="M17050 1857 c0 -27 11 -43 60 -92 33 -33 60 -63 60 -67 0 -4 -27 -36 -60 -71 -50 -54 -60 -70 -60 -101 l0 -36 145 0 145 0 0 35 0 34 -99 3 -100 3 61 68 61 68 -59 60 -58 59 87 0 87 0 0 35 0 35 -135 0 -135 0 0 -33z"/>
    <path d="M6290 922 c-36 -103 -66 -193 -68 -199 -2 -9 10 -13 41 -13 43 0 44 0 58 48 l15 47 73 0 74 0 14 -47 c14 -48 14 -48 58 -48 l44 0 -60 173 c-34 94 -65 184 -71 200 -9 25 -14 27 -61 27 l-52 0 -65 -188z m147 35 c12 -39 23 -73 23 -74 0 -2 -23 -3 -51 -3 -44 0 -51 2 -46 18 2 9 13 45 22 80 10 34 21 60 23 57 3 -3 16 -38 29 -78z"/>
    <path d="M6630 1078 c0 -26 12 -44 62 -95 l61 -62 -66 -76 c-50 -57 -67 -83 -67 -106 l0 -29 145 0 145 0 0 35 0 34 -96 3 -96 3 63 69 63 68 -65 59 -64 58 93 1 92 0 0 35 0 35 -135 0 -135 0 0 -32z"/>
    <path d="M6950 1075 l0 -35 55 0 55 0 0 -165 0 -165 40 0 40 0 0 165 0 165 55 0 55 0 0 35 0 35 -150 0 -150 0 0 -35z"/>
    <path d="M7324 986 c65 -121 66 -125 66 -200 l0 -76 40 0 40 0 0 76 c0 74 1 77 65 193 36 65 65 121 65 125 0 3 -19 6 -43 6 l-43 0 -40 -82 -41 -83 -42 83 -41 82 -46 0 -45 0 65 -124z"/>
    <path d="M7660 910 l0 -200 35 0 35 0 0 153 0 152 88 -152 87 -153 53 0 52 0 0 200 0 200 -35 0 -35 0 0 -152 0 -153 -87 152 -88 153 -52 0 -53 0 0 -200z"/>
    <path d="M8180 1088 c-61 -42 -75 -71 -78 -161 -3 -70 0 -89 20 -126 37 -71 65 -86 163 -86 90 0 116 11 159 69 18 23 21 42 21 126 0 109 -10 133 -75 178 -27 18 -47 22 -105 22 -58 0 -78 -4 -105 -22z m177 -73 c39 -43 42 -160 5 -205 -39 -47 -130 -41 -157 9 -22 44 -27 101 -13 151 11 35 21 49 48 63 43 21 87 15 117 -18z"/>
    <path d="M8560 910 l0 -200 35 0 34 0 3 153 3 152 45 -150 46 -150 39 -3 40 -3 52 158 51 158 1 -157 1 -158 35 0 35 0 0 200 0 200 -54 0 -54 0 -47 -142 c-26 -79 -51 -146 -54 -151 -4 -4 -27 59 -52 140 l-45 148 -57 3 -57 3 0 -201z"/>
    <path d="M9050 1087 c0 -16 9 -28 25 -35 25 -11 25 -13 25 -142 0 -129 0 -131 -25 -142 -16 -7 -25 -19 -25 -35 0 -22 2 -23 90 -23 89 0 90 0 90 25 0 14 -8 29 -20 35 -18 10 -20 21 -20 140 0 119 2 130 20 140 12 6 20 21 20 35 0 25 -1 25 -90 25 -88 0 -90 -1 -90 -23z"/>
    <path d="M9300 910 l0 -200 45 0 45 0 0 75 c0 61 3 76 18 84 15 8 25 -2 66 -70 26 -44 54 -83 61 -85 7 -3 29 -4 49 -2 l36 3 -69 110 -69 109 37 46 c20 25 52 64 70 88 l33 42 -46 0 c-46 0 -46 0 -114 -86 l-67 -86 -3 86 -3 86 -44 0 -45 0 0 -200z"/>
    <path d="M9737 1089 c-54 -28 -77 -71 -77 -142 0 -64 25 -125 62 -151 22 -15 20 -16 -30 -16 l-52 0 0 -35 0 -35 85 0 85 0 0 36 c0 26 -8 46 -29 70 -19 21 -32 50 -36 78 -15 95 22 149 100 149 33 0 52 -6 70 -23 48 -46 45 -147 -8 -207 -20 -23 -32 -47 -33 -69 l-1 -34 88 0 89 0 0 35 0 35 -52 0 c-50 0 -52 1 -30 16 37 26 62 87 62 151 0 72 -24 114 -79 143 -55 27 -161 27 -214 -1z"/>
    <path d="M10120 911 l0 -201 35 0 34 0 3 147 3 146 84 -146 84 -147 53 0 54 0 0 200 0 200 -42 0 -41 0 6 -152 c4 -95 3 -147 -3 -138 -5 8 -44 76 -87 150 l-79 135 -52 3 -52 3 0 -200z"/>
    <path d="M10767 1068 c-8 -24 -40 -114 -71 -200 l-55 -158 44 0 c43 0 43 0 60 50 l17 51 71 -3 72 -3 15 -47 c15 -47 16 -48 58 -48 23 0 42 3 42 8 0 4 -30 94 -67 199 l-68 193 -52 0 -51 0 -15 -42z m110 -184 c-3 -3 -25 -4 -49 -2 l-45 3 25 80 25 80 25 -78 c13 -43 22 -80 19 -83z"/>
    <path d="M11000 1075 l0 -35 55 0 55 0 0 -165 0 -165 40 0 40 0 0 165 0 165 55 0 55 0 0 35 0 35 -150 0 -150 0 0 -35z"/>
    <path d="M11320 1075 l0 -35 55 0 55 0 0 -165 0 -165 40 0 40 0 0 165 0 165 55 0 55 0 0 35 0 35 -150 0 -150 0 0 -35z"/>
    <path d="M11650 1087 c0 -16 9 -28 25 -35 25 -11 25 -13 25 -142 0 -129 0 -131 -25 -142 -16 -7 -25 -19 -25 -35 0 -22 2 -23 90 -23 89 0 90 0 90 25 0 14 -8 29 -20 35 -18 10 -20 21 -20 140 0 119 2 130 20 140 12 6 20 21 20 35 0 25 -1 25 -90 25 -88 0 -90 -1 -90 -23z"/>
    <path d="M11900 910 l0 -200 45 0 45 0 0 75 c0 61 3 76 18 84 15 8 25 -2 66 -70 26 -44 54 -83 61 -85 7 -3 29 -4 49 -2 l36 3 -69 110 -69 109 37 46 c20 25 52 64 70 88 l33 42 -46 0 c-46 0 -46 0 -114 -86 l-67 -86 -3 86 -3 86 -44 0 -45 0 0 -200z"/>
    <path d="M12280 910 l0 -200 40 0 40 0 0 85 0 85 80 0 80 0 0 -85 0 -85 40 0 40 0 0 200 0 200 -40 0 -40 0 0 -80 0 -80 -80 0 -80 0 0 80 0 80 -40 0 -40 0 0 -200z"/>
    <path d="M12680 1078 c0 -26 12 -44 62 -95 l61 -62 -66 -76 c-50 -57 -67 -83 -67 -106 l0 -29 145 0 145 0 0 35 0 34 -96 3 -96 3 63 69 63 68 -65 59 -64 58 93 1 92 0 0 35 0 35 -135 0 -135 0 0 -32z"/>
  </g>
</svg>