<svg xmlns="http://www.w3.org/2000/svg"><defs><symbol id="icon-address-card" viewBox="0 0 576 512"><path d="M64 32C28.7 32 0 60.7 0 96L0 416c0 35.3 28.7 64 64 64l448 0c35.3 0 64-28.7 64-64l0-320c0-35.3-28.7-64-64-64L64 32zm80 256l64 0c44.2 0 80 35.8 80 80 0 8.8-7.2 16-16 16L80 384c-8.8 0-16-7.2-16-16 0-44.2 35.8-80 80-80zm-24-96a56 56 0 1 1 112 0 56 56 0 1 1 -112 0zm240-48l112 0c13.3 0 24 10.7 24 24s-10.7 24-24 24l-112 0c-13.3 0-24-10.7-24-24s10.7-24 24-24zm0 96l112 0c13.3 0 24 10.7 24 24s-10.7 24-24 24l-112 0c-13.3 0-24-10.7-24-24s10.7-24 24-24z"/></symbol><symbol id="icon-arrow-right" viewBox="0 0 512 512"><path d="M502.6 278.6c12.5-12.5 12.5-32.8 0-45.3l-160-160c-12.5-12.5-32.8-12.5-45.3 0s-12.5 32.8 0 45.3L402.7 224 32 224c-17.7 0-32 14.3-32 32s14.3 32 32 32l370.7 0-105.4 105.4c-12.5 12.5-12.5 32.8 0 45.3s32.8 12.5 45.3 0l160-160z"/></symbol><symbol id="icon-check" viewBox="0 0 448 512"><path d="M434.8 70.1c14.3 10.4 17.5 30.4 7.1 44.7l-256 352c-5.5 7.6-14 12.3-23.4 13.1s-18.5-2.7-25.1-9.3l-128-128c-12.5-12.5-12.5-32.8 0-45.3s32.8-12.5 45.3 0l101.5 101.5 234-321.7c10.4-14.3 30.4-17.5 44.7-7.1z"/></symbol><symbol id="icon-chevron-right" viewBox="0 0 320 512"><path d="M311.1 233.4c12.5 12.5 12.5 32.8 0 45.3l-192 192c-12.5 12.5-32.8 12.5-45.3 0s-12.5-32.8 0-45.3L243.2 256 73.9 86.6c-12.5-12.5-12.5-32.8 0-45.3s32.8-12.5 45.3 0l192 192z"/></symbol><symbol id="icon-circle-down" viewBox="0 0 512 512"><path d="M256 0a256 256 0 1 0 0 512 256 256 0 1 0 0-512zM244.7 387.3l-104-104c-4.6-4.6-5.9-11.5-3.5-17.4s8.3-9.9 14.8-9.9l56 0 0-96c0-17.7 14.3-32 32-32l32 0c17.7 0 32 14.3 32 32l0 96 56 0c6.5 0 12.3 3.9 14.8 9.9s1.1 12.9-3.5 17.4l-104 104c-6.2 6.2-16.4 6.2-22.6 0z"/></symbol><symbol id="icon-circle-info" viewBox="0 0 512 512"><path d="M256 512a256 256 0 1 0 0-512 256 256 0 1 0 0 512zM224 160a32 32 0 1 1 64 0 32 32 0 1 1 -64 0zm-8 64l48 0c13.3 0 24 10.7 24 24l0 88 8 0c13.3 0 24 10.7 24 24s-10.7 24-24 24l-80 0c-13.3 0-24-10.7-24-24s10.7-24 24-24l24 0 0-64-24 0c-13.3 0-24-10.7-24-24s10.7-24 24-24z"/></symbol><symbol id="icon-cookie-bite" viewBox="0 0 512 512"><path d="M257.5 27.6c-.8-5.4-4.9-9.8-10.3-10.6-22.1-3.1-44.6 .9-64.4 11.4l-74 39.5C89.1 78.4 73.2 94.9 63.4 115L26.7 190.6c-9.8 20.1-13 42.9-9.1 64.9l14.5 82.8c3.9 22.1 14.6 42.3 30.7 57.9l60.3 58.4c16.1 15.6 36.6 25.6 58.7 28.7l83 11.7c22.1 3.1 44.6-.9 64.4-11.4l74-39.5c19.7-10.5 35.6-27 45.4-47.2l36.7-75.5c9.8-20.1 13-42.9 9.1-64.9-.9-5.3-5.3-9.3-10.6-10.1-51.5-8.2-92.8-47.1-104.5-97.4-1.8-7.6-8-13.4-15.7-14.6-54.6-8.7-97.7-52-106.2-106.8zM208 144a32 32 0 1 1 0 64 32 32 0 1 1 0-64zM144 336a32 32 0 1 1 64 0 32 32 0 1 1 -64 0zm224-64a32 32 0 1 1 0 64 32 32 0 1 1 0-64z"/></symbol><symbol id="icon-copy" viewBox="0 0 448 512"><path d="M384 336l-192 0c-8.8 0-16-7.2-16-16l0-256c0-8.8 7.2-16 16-16l133.5 0c4.2 0 8.3 1.7 11.3 4.7l58.5 58.5c3 3 4.7 7.1 4.7 11.3L400 320c0 8.8-7.2 16-16 16zM192 384l192 0c35.3 0 64-28.7 64-64l0-197.5c0-17-6.7-33.3-18.7-45.3L370.7 18.7C358.7 6.7 342.5 0 325.5 0L192 0c-35.3 0-64 28.7-64 64l0 256c0 35.3 28.7 64 64 64zM64 128c-35.3 0-64 28.7-64 64L0 448c0 35.3 28.7 64 64 64l192 0c35.3 0 64-28.7 64-64l0-16-48 0 0 16c0 8.8-7.2 16-16 16L64 464c-8.8 0-16-7.2-16-16l0-256c0-8.8 7.2-16 16-16l16 0 0-48-16 0z"/></symbol><symbol id="icon-crosshairs" viewBox="0 0 576 512"><path d="M288-16c17.7 0 32 14.3 32 32l0 18.3c98.1 14 175.7 91.6 189.7 189.7l18.3 0c17.7 0 32 14.3 32 32s-14.3 32-32 32l-18.3 0c-14 98.1-91.6 175.7-189.7 189.7l0 18.3c0 17.7-14.3 32-32 32s-32-14.3-32-32l0-18.3C157.9 463.7 80.3 386.1 66.3 288L48 288c-17.7 0-32-14.3-32-32s14.3-32 32-32l18.3 0C80.3 125.9 157.9 48.3 256 34.3L256 16c0-17.7 14.3-32 32-32zM131.2 288c12.7 62.7 62.1 112.1 124.8 124.8l0-12.8c0-17.7 14.3-32 32-32s32 14.3 32 32l0 12.8c62.7-12.7 112.1-62.1 124.8-124.8L432 288c-17.7 0-32-14.3-32-32s14.3-32 32-32l12.8 0C432.1 161.3 382.7 111.9 320 99.2l0 12.8c0 17.7-14.3 32-32 32s-32-14.3-32-32l0-12.8C193.3 111.9 143.9 161.3 131.2 224l12.8 0c17.7 0 32 14.3 32 32s-14.3 32-32 32l-12.8 0zM288 208a48 48 0 1 1 0 96 48 48 0 1 1 0-96z"/></symbol><symbol id="icon-envelope" viewBox="0 0 512 512"><path d="M48 64c-26.5 0-48 21.5-48 48 0 15.1 7.1 29.3 19.2 38.4l208 156c17.1 12.8 40.5 12.8 57.6 0l208-156c12.1-9.1 19.2-23.3 19.2-38.4 0-26.5-21.5-48-48-48L48 64zM0 196L0 384c0 35.3 28.7 64 64 64l384 0c35.3 0 64-28.7 64-64l0-188-198.4 148.8c-34.1 25.6-81.1 25.6-115.2 0L0 196z"/></symbol><symbol id="icon-envelope-circle-check" viewBox="0 0 640 512"><path d="M64 112c0-26.5 21.5-48 48-48l416 0c26.5 0 48 21.5 48 48l0 81.4c-24.4-11.2-51.4-17.4-80-17.4-87.7 0-161.7 58.8-184.7 139.2-7.1-1.3-14.1-4.2-20.1-8.8l-208-156C71.1 141.3 64 127.1 64 112zM304 368c0 28.6 6.2 55.6 17.4 80L128 448c-35.3 0-64-28.7-64-64l0-188 198.4 148.8c12.6 9.4 26.9 15.4 41.7 17.9 0 1.8-.1 3.5-.1 5.3zm48 0a144 144 0 1 1 288 0 144 144 0 1 1 -288 0zm201.4-60.9c-7.1-5.2-17.2-3.6-22.4 3.5l-53 72.9-26.8-26.8c-6.2-6.2-16.4-6.2-22.6 0s-6.2 16.4 0 22.6l40 40c3.3 3.3 7.9 5 12.6 4.6s8.9-2.8 11.7-6.5l64-88c5.2-7.1 3.6-17.2-3.5-22.3z"/></symbol><symbol id="icon-envelope-open-text" viewBox="0 0 576 512"><path d="M288 33.9L96.4 175.8 254.5 293c5.3 3.9 11.2 6.9 17.5 8.7L272 464c0 5.5 .5 10.8 1.3 16L96 480c-35.3 0-64-28.7-64-64l0-239.9c0-20.3 9.6-39.4 25.9-51.4L254.5-21c9.7-7.2 21.4-11 33.5-11s23.8 3.9 33.5 11L518.1 124.7c7.2 5.3 13.1 12 17.4 19.6-2.5-.2-5-.3-7.5-.3L436.6 144 288 33.9zM320 240c0-26.5 21.5-48 48-48l160 0c26.5 0 48 21.5 48 48l0 224c0 26.5-21.5 48-48 48l-160 0c-26.5 0-48-21.5-48-48l0-224zm80 16c-13.3 0-24 10.7-24 24s10.7 24 24 24l96 0c13.3 0 24-10.7 24-24s-10.7-24-24-24l-96 0zm0 96c-13.3 0-24 10.7-24 24s10.7 24 24 24l56 0c13.3 0 24-10.7 24-24s-10.7-24-24-24l-56 0z"/></symbol><symbol id="icon-file-arrow-down" viewBox="0 0 384 512"><path d="M0 64C0 28.7 28.7 0 64 0L213.5 0c17 0 33.3 6.7 45.3 18.7L365.3 125.3c12 12 18.7 28.3 18.7 45.3L384 448c0 35.3-28.7 64-64 64L64 512c-35.3 0-64-28.7-64-64L0 64zm208-5.5l0 93.5c0 13.3 10.7 24 24 24L325.5 176 208 58.5zM175 441c9.4 9.4 24.6 9.4 33.9 0l64-64c9.4-9.4 9.4-24.6 0-33.9s-24.6-9.4-33.9 0l-23 23 0-86.1c0-13.3-10.7-24-24-24s-24 10.7-24 24l0 86.1-23-23c-9.4-9.4-24.6-9.4-33.9 0s-9.4 24.6 0 33.9l64 64z"/></symbol><symbol id="icon-file-lines" viewBox="0 0 384 512"><path d="M0 64C0 28.7 28.7 0 64 0L213.5 0c17 0 33.3 6.7 45.3 18.7L365.3 125.3c12 12 18.7 28.3 18.7 45.3L384 448c0 35.3-28.7 64-64 64L64 512c-35.3 0-64-28.7-64-64L0 64zm208-5.5l0 93.5c0 13.3 10.7 24 24 24L325.5 176 208 58.5zM120 256c-13.3 0-24 10.7-24 24s10.7 24 24 24l144 0c13.3 0 24-10.7 24-24s-10.7-24-24-24l-144 0zm0 96c-13.3 0-24 10.7-24 24s10.7 24 24 24l144 0c13.3 0 24-10.7 24-24s-10.7-24-24-24l-144 0z"/></symbol><symbol id="icon-file-pdf" viewBox="0 0 576 512"><path d="M96 0C60.7 0 32 28.7 32 64l0 384c0 35.3 28.7 64 64 64l80 0 0-112c0-35.3 28.7-64 64-64l176 0 0-165.5c0-17-6.7-33.3-18.7-45.3L290.7 18.7C278.7 6.7 262.5 0 245.5 0L96 0zM357.5 176L264 176c-13.3 0-24-10.7-24-24L240 58.5 357.5 176zM240 380c-11 0-20 9-20 20l0 128c0 11 9 20 20 20s20-9 20-20l0-28 12 0c33.1 0 60-26.9 60-60s-26.9-60-60-60l-32 0zm32 80l-12 0 0-40 12 0c11 0 20 9 20 20s-9 20-20 20zm96-80c-11 0-20 9-20 20l0 128c0 11 9 20 20 20l32 0c28.7 0 52-23.3 52-52l0-64c0-28.7-23.3-52-52-52l-32 0zm20 128l0-88 12 0c6.6 0 12 5.4 12 12l0 64c0 6.6-5.4 12-12 12l-12 0zm88-108l0 128c0 11 9 20 20 20s20-9 20-20l0-44 28 0c11 0 20-9 20-20s-9-20-20-20l-28 0 0-24 28 0c11 0 20-9 20-20s-9-20-20-20l-48 0c-11 0-20 9-20 20z"/></symbol><symbol id="icon-file-pen" viewBox="0 0 640 512"><path d="M128.1 0c-35.3 0-64 28.7-64 64l0 384c0 35.3 28.7 64 64 64l146.2 0 10.9-54.5c4.3-21.7 15-41.6 30.6-57.2l132.2-132.2 0-97.5c0-17-6.7-33.3-18.7-45.3L322.8 18.7C310.8 6.7 294.5 0 277.6 0L128.1 0zM389.6 176l-93.5 0c-13.3 0-24-10.7-24-24l0-93.5 117.5 117.5zM332.3 466.9l-11.9 59.6c-.2 .9-.3 1.9-.3 2.9 0 8 6.5 14.6 14.6 14.6 1 0 1.9-.1 2.9-.3l59.6-11.9c12.4-2.5 23.8-8.6 32.7-17.5l118.9-118.9-80-80-118.9 118.9c-8.9 8.9-15 20.3-17.5 32.7zm267.8-123c22.1-22.1 22.1-57.9 0-80s-57.9-22.1-80 0l-28.8 28.8 80 80 28.8-28.8z"/></symbol><symbol id="icon-file-signature" viewBox="0 0 640 512"><path d="M64.1 64c0-35.3 28.7-64 64-64L277.6 0c17 0 33.3 6.7 45.3 18.7L429.3 125.3c12 12 18.7 28.3 18.7 45.3l0 97.5-132 132-42.1 0-16.1-53.6c-4.7-15.7-19.1-26.4-35.5-26.4-11.3 0-21.9 5.1-28.9 13.9L133.3 409c-8.3 10.3-6.6 25.5 3.7 33.7s25.5 6.6 33.7-3.8l47.1-58.8 15.2 50.7c3 10.2 12.4 17.1 23 17.1l31.5 0c-.9 3.1-1.7 6.3-2.3 9.5l-10.9 54.5-146.2 0c-35.3 0-64-28.7-64-64l0-384zm208-5.5l0 93.5c0 13.3 10.7 24 24 24l93.5 0-117.5-117.5zm60.2 408.4c2.5-12.4 8.6-23.8 17.5-32.7l118.9-118.9 80 80-118.9 118.9c-8.9 8.9-20.3 15-32.7 17.5l-59.6 11.9c-.9 .2-1.9 .3-2.9 .3-8 0-14.6-6.5-14.6-14.6 0-1 .1-1.9 .3-2.9l11.9-59.6zm267.8-123l-28.8 28.8-80-80 28.8-28.8c22.1-22.1 57.9-22.1 80 0s22.1 57.9 0 80z"/></symbol><symbol id="icon-folder-open" viewBox="0 0 576 512"><path d="M56 225.6L32.4 296.2 32.4 96c0-35.3 28.7-64 64-64l138.7 0c13.8 0 27.3 4.5 38.4 12.8l38.4 28.8c5.5 4.2 12.3 6.4 19.2 6.4l117.3 0c35.3 0 64 28.7 64 64l0 16-365.4 0c-41.3 0-78 26.4-91.1 65.6zM477.8 448L99 448c-32.8 0-55.9-32.1-45.5-63.2l48-144C108 221.2 126.4 208 147 208l378.8 0c32.8 0 55.9 32.1 45.5 63.2l-48 144c-6.5 19.6-24.9 32.8-45.5 32.8z"/></symbol><symbol id="icon-headset" viewBox="0 0 448 512"><path d="M224 64c-79 0-144.7 57.3-157.7 132.7 9.3-3 19.3-4.7 29.7-4.7l16 0c26.5 0 48 21.5 48 48l0 96c0 26.5-21.5 48-48 48l-16 0c-53 0-96-43-96-96l0-64C0 100.3 100.3 0 224 0S448 100.3 448 224l0 168.1c0 66.3-53.8 120-120.1 120l-87.9-.1-32 0c-26.5 0-48-21.5-48-48s21.5-48 48-48l32 0c26.5 0 48 21.5 48 48l0 0 40 0c39.8 0 72-32.2 72-72l0-20.9c-14.1 8.2-30.5 12.8-48 12.8l-16 0c-26.5 0-48-21.5-48-48l0-96c0-26.5 21.5-48 48-48l16 0c10.4 0 20.3 1.6 29.7 4.7-13-75.3-78.6-132.7-157.7-132.7z"/></symbol><symbol id="icon-id-card" viewBox="0 0 576 512"><path d="M0 96C0 60.7 28.7 32 64 32l448 0c35.3 0 64 28.7 64 64L0 96zm0 48l576 0 0 272c0 35.3-28.7 64-64 64L64 480c-35.3 0-64-28.7-64-64L0 144zM247.3 416c20.2 0 35.3-19.4 22.4-35-14.7-17.7-36.9-29-61.7-29l-64 0c-24.8 0-47 11.3-61.7 29-12.9 15.6 2.2 35 22.4 35l142.5 0zM176 312a56 56 0 1 0 0-112 56 56 0 1 0 0 112zM360 208c-13.3 0-24 10.7-24 24s10.7 24 24 24l112 0c13.3 0 24-10.7 24-24s-10.7-24-24-24l-112 0zm0 96c-13.3 0-24 10.7-24 24s10.7 24 24 24l112 0c13.3 0 24-10.7 24-24s-10.7-24-24-24l-112 0z"/></symbol><symbol id="icon-list-check" viewBox="0 0 512 512"><path d="M133.8 36.3c10.9 7.6 13.5 22.6 5.9 33.4l-56 80c-4.1 5.8-10.5 9.5-17.6 10.1S52 158 47 153L7 113C-2.3 103.6-2.3 88.4 7 79S31.6 69.7 41 79l19.8 19.8 39.6-56.6c7.6-10.9 22.6-13.5 33.4-5.9zm0 160c10.9 7.6 13.5 22.6 5.9 33.4l-56 80c-4.1 5.8-10.5 9.5-17.6 10.1S52 318 47 313L7 273c-9.4-9.4-9.4-24.6 0-33.9s24.6-9.4 33.9 0l19.8 19.8 39.6-56.6c7.6-10.9 22.6-13.5 33.4-5.9zM224 96c0-17.7 14.3-32 32-32l224 0c17.7 0 32 14.3 32 32s-14.3 32-32 32l-224 0c-17.7 0-32-14.3-32-32zm0 160c0-17.7 14.3-32 32-32l224 0c17.7 0 32 14.3 32 32s-14.3 32-32 32l-224 0c-17.7 0-32-14.3-32-32zM160 416c0-17.7 14.3-32 32-32l288 0c17.7 0 32 14.3 32 32s-14.3 32-32 32l-288 0c-17.7 0-32-14.3-32-32zM64 376a40 40 0 1 1 0 80 40 40 0 1 1 0-80z"/></symbol><symbol id="icon-location-dot" viewBox="0 0 384 512"><path d="M0 188.6C0 84.4 86 0 192 0S384 84.4 384 188.6c0 119.3-120.2 262.3-170.4 316.8-11.8 12.8-31.5 12.8-43.3 0-50.2-54.5-170.4-197.5-170.4-316.8zM192 256a64 64 0 1 0 0-128 64 64 0 1 0 0 128z"/></symbol><symbol id="icon-map-pin" viewBox="0 0 320 512"><path d="M192 284.4C256.1 269.9 304 212.5 304 144 304 64.5 239.5 0 160 0S16 64.5 16 144c0 68.5 47.9 125.9 112 140.4L128 480c0 17.7 14.3 32 32 32s32-14.3 32-32l0-195.6zM168 96c-30.9 0-56 25.1-56 56 0 13.3-10.7 24-24 24s-24-10.7-24-24c0-57.4 46.6-104 104-104 13.3 0 24 10.7 24 24s-10.7 24-24 24z"/></symbol><symbol id="icon-minus" viewBox="0 0 448 512"><path d="M0 256c0-17.7 14.3-32 32-32l384 0c17.7 0 32 14.3 32 32s-14.3 32-32 32L32 288c-17.7 0-32-14.3-32-32z"/></symbol><symbol id="icon-mobile-screen" viewBox="0 0 384 512"><path d="M16 64C16 28.7 44.7 0 80 0L304 0c35.3 0 64 28.7 64 64l0 384c0 35.3-28.7 64-64 64L80 512c-35.3 0-64-28.7-64-64L16 64zM128 440c0 13.3 10.7 24 24 24l80 0c13.3 0 24-10.7 24-24s-10.7-24-24-24l-80 0c-13.3 0-24 10.7-24 24zM304 64l-224 0 0 304 224 0 0-304z"/></symbol><symbol id="icon-mobile-screen-button" viewBox="0 0 384 512"><path d="M16 64C16 28.7 44.7 0 80 0L304 0c35.3 0 64 28.7 64 64l0 384c0 35.3-28.7 64-64 64L80 512c-35.3 0-64-28.7-64-64L16 64zm64 0l0 304 224 0 0-304-224 0zM192 472c17.7 0 32-14.3 32-32s-14.3-32-32-32-32 14.3-32 32 14.3 32 32 32z"/></symbol><symbol id="icon-paper-plane" viewBox="0 0 576 512"><path d="M536.4-26.3c9.8-3.5 20.6-1 28 6.3s9.8 18.2 6.3 28l-178 496.9c-5 13.9-18.1 23.1-32.8 23.1-14.2 0-27-8.6-32.3-21.7l-64.2-158c-4.5-11-2.5-23.6 5.2-32.6l94.5-112.4c5.1-6.1 4.7-15-.9-20.6s-14.6-6-20.6-.9L229.2 276.1c-9.1 7.6-21.6 9.6-32.6 5.2L38.1 216.8c-13.1-5.3-21.7-18.1-21.7-32.3 0-14.7 9.2-27.8 23.1-32.8l496.9-178z"/></symbol><symbol id="icon-phone" viewBox="0 0 512 512"><path d="M160.2 25C152.3 6.1 131.7-3.9 112.1 1.4l-5.5 1.5c-64.6 17.6-119.8 80.2-103.7 156.4 37.1 175 174.8 312.7 349.8 349.8 76.3 16.2 138.8-39.1 156.4-103.7l1.5-5.5c5.4-19.7-4.7-40.3-23.5-48.1l-97.3-40.5c-16.5-6.9-35.6-2.1-47 11.8l-38.6 47.2C233.9 335.4 177.3 277 144.8 205.3L189 169.3c13.9-11.3 18.6-30.4 11.8-47L160.2 25z"/></symbol><symbol id="icon-phone-flip" viewBox="0 0 512 512"><path d="M351.8 25c7.8-18.8 28.4-28.9 48.1-23.5l5.5 1.5c64.6 17.6 119.8 80.2 103.7 156.4-37.1 175-174.8 312.7-349.8 349.8-76.3 16.2-138.8-39.1-156.4-103.7l-1.5-5.5c-5.4-19.7 4.7-40.3 23.5-48.1l97.3-40.5c16.5-6.9 35.6-2.1 47 11.8l38.6 47.2c70.3-34.9 126.8-93.3 159.3-164.9l-44.1-36.1c-13.9-11.3-18.6-30.4-11.8-47L351.8 25z"/></symbol><symbol id="icon-plus" viewBox="0 0 448 512"><path d="M256 64c0-17.7-14.3-32-32-32s-32 14.3-32 32l0 160-160 0c-17.7 0-32 14.3-32 32s14.3 32 32 32l160 0 0 160c0 17.7 14.3 32 32 32s32-14.3 32-32l0-160 160 0c17.7 0 32-14.3 32-32s-14.3-32-32-32l-160 0 0-160z"/></symbol><symbol id="icon-rotate-left" viewBox="0 0 512 512"><path d="M24 192l144 0c9.7 0 18.5-5.8 22.2-14.8s1.7-19.3-5.2-26.2l-46.7-46.7c75.3-58.6 184.3-53.3 253.5 15.9 75 75 75 196.5 0 271.5s-196.5 75-271.5 0c-10.2-10.2-19-21.3-26.4-33-9.5-14.9-29.3-19.3-44.2-9.8s-19.3 29.3-9.8 44.2C49.7 408.7 61.4 423.5 75 437 175 537 337 537 437 437S537 175 437 75C342.8-19.3 193.3-24.7 92.7 58.8L41 7C34.1 .2 23.8-1.9 14.8 1.8S0 14.3 0 24L0 168c0 13.3 10.7 24 24 24z"/></symbol><symbol id="icon-screwdriver-wrench" viewBox="0 0 576 512"><path d="M70.8-6.7c5.4-5.4 13.8-6.2 20.2-2L209.9 70.5c8.9 5.9 14.2 15.9 14.2 26.6l0 49.6 90.8 90.8c33.3-15 73.9-8.9 101.2 18.5L542.2 382.1c18.7 18.7 18.7 49.1 0 67.9l-60.1 60.1c-18.7 18.7-49.1 18.7-67.9 0L288.1 384c-27.4-27.4-33.5-67.9-18.5-101.2l-90.8-90.8-49.6 0c-10.7 0-20.7-5.3-26.6-14.2L23.4 58.9c-4.2-6.3-3.4-14.8 2-20.2L70.8-6.7zm145 303.5c-6.3 36.9 2.3 75.9 26.2 107.2l-94.9 95c-28.1 28.1-73.7 28.1-101.8 0s-28.1-73.7 0-101.8l135.4-135.5 35.2 35.1zM384.1 0c20.1 0 39.4 3.7 57.1 10.5 10 3.8 11.8 16.5 4.3 24.1L388.8 91.3c-3 3-4.7 7.1-4.7 11.3l0 41.4c0 8.8 7.2 16 16 16l41.4 0c4.2 0 8.3-1.7 11.3-4.7l56.7-56.7c7.6-7.5 20.3-5.7 24.1 4.3 6.8 17.7 10.5 37 10.5 57.1 0 43.2-17.2 82.3-45 111.1l-49.1-49.1c-33.1-33-78.5-45.7-121.1-38.4l-56.8-56.8 0-29.7-.2-5c-.8-12.4-4.4-24.3-10.5-34.9 29.4-35 73.4-57.2 122.7-57.3z"/></symbol><symbol id="icon-shield-halved" viewBox="0 0 512 512"><path d="M256 0c4.6 0 9.2 1 13.4 2.9L457.8 82.8c22 9.3 38.4 31 38.3 57.2-.5 99.2-41.3 280.7-213.6 363.2-16.7 8-36.1 8-52.8 0-172.4-82.5-213.1-264-213.6-363.2-.1-26.2 16.3-47.9 38.3-57.2L242.7 2.9C246.9 1 251.4 0 256 0zm0 66.8l0 378.1c138-66.8 175.1-214.8 176-303.4l-176-74.6 0 0z"/></symbol><symbol id="icon-signature" viewBox="0 0 640 512"><path d="M192 128c0-17.7 14.3-32 32-32s32 14.3 32 32l0 7.8c0 27.7-2.4 55.3-7.1 82.5l-84.4 25.3c-40.6 12.2-68.4 49.6-68.4 92l0 32.4-72 0c-13.3 0-24 10.7-24 24s10.7 24 24 24l72.5 0c4.2 36 34.8 64 72 64 26 0 50-13.9 62.9-36.5l13.9-24.3c26.8-47 46.5-97.7 58.4-150.5l94.4-28.3-12.5 37.5c-3.3 9.8-1.6 20.5 4.4 28.8S405.7 320 416 320l128 0c17.7 0 32-14.3 32-32s-14.3-32-32-32l-83.6 0 18-53.9c3.8-11.3 .9-23.8-7.4-32.4s-20.7-11.8-32.2-8.4L316.4 198.1c2.4-20.7 3.6-41.4 3.6-62.3l0-7.8c0-53-43-96-96-96s-96 43-96 96l0 32c0 17.7 14.3 32 32 32s32-14.3 32-32l0-32zm-9.2 177l49-14.7c-10.4 33.8-24.5 66.4-42.1 97.2l-13.9 24.3c-1.5 2.6-4.3 4.3-7.4 4.3-4.7 0-8.5-3.8-8.5-8.5l0-71.9c0-14.1 9.3-26.6 22.8-30.7zM616 416c13.3 0 24-10.7 24-24s-10.7-24-24-24l-292.9 0c-6.5 16.3-13.7 32.3-21.6 48L616 416z"/></symbol><symbol id="icon-tags" viewBox="0 0 576 512"><path d="M401.2 39.1L549.4 189.4c27.7 28.1 27.7 73.1 0 101.2L393 448.9c-9.3 9.4-24.5 9.5-33.9 .2s-9.5-24.5-.2-33.9L515.3 256.8c9.2-9.3 9.2-24.4 0-33.7L367 72.9c-9.3-9.4-9.2-24.6 .2-33.9s24.6-9.2 33.9 .2zM32.1 229.5L32.1 96c0-35.3 28.7-64 64-64l133.5 0c17 0 33.3 6.7 45.3 18.7l144 144c25 25 25 65.5 0 90.5L285.4 418.7c-25 25-65.5 25-90.5 0l-144-144c-12-12-18.7-28.3-18.7-45.3zm144-85.5a32 32 0 1 0 -64 0 32 32 0 1 0 64 0z"/></symbol><symbol id="icon-tower-broadcast" viewBox="0 0 576 512"><path d="M87.9 11.5c-11.3-6.9-26.1-3.2-33 8.1-24.8 41-39 89.1-39 140.4s14.2 99.4 39 140.4c6.9 11.3 21.6 15 33 8.1s15-21.6 8.1-33C75.7 241.9 64 202.3 64 160S75.7 78.1 96.1 44.4c6.9-11.3 3.2-26.1-8.1-33zm400.1 0c-11.3 6.9-15 21.6-8.1 33 20.4 33.7 32.1 73.3 32.1 115.6s-11.7 81.9-32.1 115.6c-6.9 11.3-3.2 26.1 8.1 33s26.1 3.2 33-8.1c24.8-41 39-89.1 39-140.4S545.8 60.6 521 19.6c-6.9-11.3-21.6-15-33-8.1zM320 215.4c19.1-11.1 32-31.7 32-55.4 0-35.3-28.7-64-64-64s-64 28.7-64 64c0 23.7 12.9 44.4 32 55.4L256 480c0 17.7 14.3 32 32 32s32-14.3 32-32l0-264.6zM180.2 91c7.2-11.2 3.9-26-7.2-33.2s-26-3.9-33.2 7.2c-17.6 27.4-27.8 60-27.8 95s10.2 67.6 27.8 95c7.2 11.2 22 14.4 33.2 7.2s14.4-22 7.2-33.2c-12.8-19.9-20.2-43.6-20.2-69s7.4-49.1 20.2-69zM436.2 65c-7.2-11.2-22-14.4-33.2-7.2s-14.4 22-7.2 33.2c12.8 19.9 20.2 43.6 20.2 69s-7.4 49.1-20.2 69c-7.2 11.2-3.9 26 7.2 33.2s26 3.9 33.2-7.2c17.6-27.4 27.8-60 27.8-95s-10.2-67.6-27.8-95z"/></symbol><symbol id="icon-triangle-exclamation" viewBox="0 0 512 512"><path d="M256 0c14.7 0 28.2 8.1 35.2 21l216 400c6.7 12.4 6.4 27.4-.8 39.5S486.1 480 472 480L40 480c-14.1 0-27.2-7.4-34.4-19.5s-7.5-27.1-.8-39.5l216-400c7-12.9 20.5-21 35.2-21zm0 352a32 32 0 1 0 0 64 32 32 0 1 0 0-64zm0-192c-18.2 0-32.7 15.5-31.4 33.7l7.4 104c.9 12.5 11.4 22.3 23.9 22.3 12.6 0 23-9.7 23.9-22.3l7.4-104c1.3-18.2-13.1-33.7-31.4-33.7z"/></symbol><symbol id="icon-tv" viewBox="0 0 576 512"><path d="M64 96l0 240 448 0 0-240-448 0zM0 96C0 60.7 28.7 32 64 32l448 0c35.3 0 64 28.7 64 64l0 240c0 35.3-28.7 64-64 64L64 400c-35.3 0-64-28.7-64-64L0 96zM160 448l256 0c17.7 0 32 14.3 32 32s-14.3 32-32 32l-256 0c-17.7 0-32-14.3-32-32s14.3-32 32-32z"/></symbol><symbol id="icon-viber" viewBox="0 0 512 512"><path d="M444.3 49.9c-12.7-11.7-64.1-49-178.7-49.5 0 0-135.1-8.1-200.9 52.3-36.6 36.6-49.5 90.3-50.9 156.8s-3.1 191.1 117 224.9l.1 0-.1 51.6s-.8 20.9 13 25.1c16.6 5.2 26.4-10.7 42.3-27.8 8.7-9.4 20.7-23.2 29.8-33.7 82.2 6.9 145.3-8.9 152.5-11.2 16.6-5.4 110.5-17.4 125.7-142 15.8-128.6-7.6-209.8-49.8-246.5zM458.2 287c-12.9 104-89 110.6-103 115.1-6 1.9-61.5 15.7-131.2 11.2 0 0-52 62.7-68.2 79-5.3 5.3-11.1 4.8-11-5.7 0-6.9 .4-85.7 .4-85.7l0 0C43.4 372.7 49.4 266.6 50.5 211.1s11.6-101 42.6-131.6c55.7-50.5 170.4-43 170.4-43 96.9 .4 143.3 29.6 154.1 39.4 35.7 30.6 53.9 103.8 40.6 211.1zm-139-80.8c.4 8.6-12.5 9.2-12.9 .6-1.1-22-11.4-32.7-32.6-33.9-8.6-.5-7.8-13.4 .7-12.9 27.9 1.5 43.4 17.5 44.8 46.2zm20.3 11.3c1-42.4-25.5-75.6-75.8-79.3-8.5-.6-7.6-13.5 .9-12.9 58 4.2 88.9 44.1 87.8 92.5-.1 8.6-13.1 8.2-12.9-.3zm47 13.4c.1 8.6-12.9 8.7-12.9 .1-.6-81.5-54.9-125.9-120.8-126.4-8.5-.1-8.5-12.9 0-12.9 73.7 .5 133 51.4 133.7 139.2zM375.2 329l0 .2c-10.8 19-31 40-51.8 33.3l-.2-.3c-21.1-5.9-70.8-31.5-102.2-56.5-16.2-12.8-31-27.9-42.4-42.4-10.3-12.9-20.7-28.2-30.8-46.6-21.3-38.5-26-55.7-26-55.7-6.7-20.8 14.2-41 33.3-51.8l.2 0c9.2-4.8 18-3.2 23.9 3.9 0 0 12.4 14.8 17.7 22.1 5 6.8 11.7 17.7 15.2 23.8 6.1 10.9 2.3 22-3.7 26.6l-12 9.6c-6.1 4.9-5.3 14-5.3 14s17.8 67.3 84.3 84.3c0 0 9.1 .8 14-5.3l9.6-12c4.6-6 15.7-9.8 26.6-3.7 14.7 8.3 33.4 21.2 45.8 32.9 7 5.7 8.6 14.4 3.8 23.6z"/></symbol><symbol id="icon-wifi" viewBox="0 0 576 512"><path d="M288 96c-90.9 0-173.2 36-233.7 94.6-12.7 12.3-33 12-45.2-.7s-12-33 .7-45.2C81.7 74.9 179.9 32 288 32S494.3 74.9 566.3 144.7c12.7 12.3 13 32.6 .7 45.2s-32.6 13-45.2 .7C461.2 132 378.9 96 288 96zM240 432a48 48 0 1 1 96 0 48 48 0 1 1 -96 0zM168 326.2c-11.7 13.3-31.9 14.5-45.2 2.8s-14.5-31.9-2.8-45.2C161 237.4 221.1 208 288 208s127 29.4 168 75.8c11.7 13.3 10.4 33.5-2.8 45.2s-33.5 10.4-45.2-2.8C378.6 292.9 335.8 272 288 272s-90.6 20.9-120 54.2z"/></symbol><symbol id="icon-xmark" viewBox="0 0 384 512"><path d="M55.1 73.4c-12.5-12.5-32.8-12.5-45.3 0s-12.5 32.8 0 45.3L147.2 256 9.9 393.4c-12.5 12.5-12.5 32.8 0 45.3s32.8 12.5 45.3 0L192.5 301.3 329.9 438.6c12.5 12.5 32.8 12.5 45.3 0s12.5-32.8 0-45.3L237.8 256 375.1 118.6c12.5-12.5 12.5-32.8 0-45.3s-32.8-12.5-45.3 0L192.5 210.7 55.1 73.4z"/></symbol></defs></svg>
